<svg id="Layer_1" data-name="Layer 1" xmlns="http://www.w3.org/2000/svg" viewBox="0 0 145.91 141.97"><defs><style>.cls-1{fill:#832626;}</style></defs><title>pdf</title><g id="Layer_32" data-name="Layer 32"><path class="cls-1" d="M128.34,155H57.87a10.33,10.33,0,0,1-10.32-10.32v-26a2,2,0,0,1,2-2h66.23a2.54,2.54,0,0,0,2.53-2.54V81.57A2.54,2.54,0,0,0,115.75,79H49.52a2,2,0,0,1-2-2V39.33A10.33,10.33,0,0,1,57.87,29H114.4a2,2,0,0,1,2,2V56.09a3.13,3.13,0,0,0,3.13,3.13h25.11a2,2,0,0,1,2,2v52.68a2,2,0,0,1-2,2H132v26.81a2,2,0,0,1-2,2h-7.26l7,7a2,2,0,0,1-1.39,3.36ZM51.49,120.61v24A6.39,6.39,0,0,0,57.87,151h65.71l-7-7a2,2,0,0,1,1.39-3.36h10v-26.8a2,2,0,0,1,2-2h12.65V63.15H119.5a7.07,7.07,0,0,1-7.07-7.06V33H57.87a6.38,6.38,0,0,0-6.38,6.38V75.09h64.26a6.48,6.48,0,0,1,6.47,6.48v32.56a6.48,6.48,0,0,1-6.47,6.48Z" transform="translate(-27.05 -29.01)"/><path class="cls-1" d="M115.75,120.61H33.52a6.48,6.48,0,0,1-6.47-6.48V81.57a6.48,6.48,0,0,1,6.47-6.48h82.23a6.48,6.48,0,0,1,6.47,6.48v32.56A6.48,6.48,0,0,1,115.75,120.61ZM33.52,79A2.54,2.54,0,0,0,31,81.57v32.56a2.54,2.54,0,0,0,2.54,2.54h82.23a2.54,2.54,0,0,0,2.53-2.54V81.57A2.54,2.54,0,0,0,115.75,79Z" transform="translate(-27.05 -29.01)"/><path class="cls-1" d="M144.62,63.15H119.5a7.07,7.07,0,0,1-7.07-7.06V31a2,2,0,0,1,3.36-1.39l30.09,30.09a2,2,0,0,1-1.26,3.47ZM116.37,35.73V56.09a3.13,3.13,0,0,0,3.13,3.13h20.35Z" transform="translate(-27.05 -29.01)"/><path class="cls-1" d="M144.61,171a1.72,1.72,0,0,1-1.22-.51l-26.63-26.62a1.72,1.72,0,0,1,1.22-2.94h10.29v-27a1.73,1.73,0,0,1,1.72-1.73h29.25a1.73,1.73,0,0,1,1.72,1.73v27h10.27a1.72,1.72,0,0,1,1.22,2.94l-26.62,26.62A1.72,1.72,0,0,1,144.61,171Zm-22.47-26.63,22.47,22.47,22.46-22.47h-7.83a1.72,1.72,0,0,1-1.72-1.72v-27H131.71v27a1.72,1.72,0,0,1-1.72,1.72Z" transform="translate(-27.05 -29.01)"/><path class="cls-1" d="M44.55,110.46a2.55,2.55,0,1,1,2.73-2.56A2.67,2.67,0,0,1,44.55,110.46Z" transform="translate(-27.05 -29.01)"/><path class="cls-1" d="M57.29,102.29v6a2.3,2.3,0,0,1-4.6,0V89.39A2.5,2.5,0,0,1,55.25,87h4.83c6.16,0,8.36,3.67,8.36,7.68,0,4.85-3.28,7.58-8.36,7.58Zm0-4.17h2.79c2.46,0,3.77-1.08,3.77-3.45,0-1.7-.69-3.47-3.77-3.47H57.29Z" transform="translate(-27.05 -29.01)"/><path class="cls-1" d="M79.31,110.16H75.6A2.5,2.5,0,0,1,73,107.8V89.36A2.5,2.5,0,0,1,75.6,87h3.71c7.41,0,10,4.06,10,8.63v5.64C89.28,105.9,86.75,110.16,79.31,110.16Zm5.38-14.53c0-2.5-1.28-4.47-4.83-4.47H77.63V106h2.23c3.61,0,4.83-2.13,4.83-4.72Z" transform="translate(-27.05 -29.01)"/><path class="cls-1" d="M98.76,108.36a2.3,2.3,0,0,1-4.59,0v-19A2.49,2.49,0,0,1,96.7,87h8.89a2.25,2.25,0,0,1,2.3,2.13,2.15,2.15,0,0,1-2.3,2H98.76v5.32H105a2.21,2.21,0,0,1,2.26,2.07,2.15,2.15,0,0,1-2.26,2.1H98.76Z" transform="translate(-27.05 -29.01)"/></g></svg>