<svg id="Layer_1" data-name="Layer 1" xmlns="http://www.w3.org/2000/svg" viewBox="0 0 157.47 144.12"><defs><style>.cls-1,.cls-2{fill:none;stroke-linecap:round;stroke-linejoin:round;stroke-width:4px;}.cls-1{stroke:#f3a31e;}.cls-2{stroke:#fff;}</style></defs><title>accounts_hover</title><path class="cls-1" d="M128.53,74.57h42.91a5.31,5.31,0,0,1,5.3,5.29v40.22a5.31,5.31,0,0,1-5.3,5.29H128.53A22.58,22.58,0,0,1,106,102.86V97.08a22.58,22.58,0,0,1,22.51-22.51Z" transform="translate(-21.26 -27.94)"/><path class="cls-2" d="M131.22,89.38A10.62,10.62,0,1,1,120.6,100a10.62,10.62,0,0,1,10.62-10.62Z" transform="translate(-21.26 -27.94)"/><path class="cls-1" d="M164.88,125.73v30.58a13.81,13.81,0,0,1-13.75,13.75H37a13.8,13.8,0,0,1-13.76-13.75V43.69A13.8,13.8,0,0,1,37,29.94H151.13a13.8,13.8,0,0,1,13.75,13.75V73.85" transform="translate(-21.26 -27.94)"/></svg>