<svg id="Layer_1" data-name="Layer 1" xmlns="http://www.w3.org/2000/svg" viewBox="0 0 139.53 144.28"><defs><style>.cls-1,.cls-2{fill:none;stroke-linecap:round;stroke-linejoin:round;stroke-width:4px;}.cls-1{stroke:#f3a31e;}.cls-2{stroke:#fff;}</style></defs><title>investments_hover</title><line class="cls-1" x1="69.77" y1="34.64" x2="69.77" y2="140.28"/><line class="cls-2" x1="2" y1="142.28" x2="137.53" y2="142.28"/><path class="cls-1" d="M115.21,59.08c0,9.29-7.22,16.82-16.13,16.82S82.94,68.37,82.94,59.08,99.08,29.81,99.08,29.81,115.21,49.79,115.21,59.08Z" transform="translate(-29.31 -27.81)"/><path class="cls-1" d="M77.93,88.79a17.32,17.32,0,0,1,2.32,23.67,15.7,15.7,0,0,1-22.7,2.42C50.65,109,45.22,82.72,45.22,82.72S71,82.93,77.93,88.79Z" transform="translate(-29.31 -27.81)"/><line class="cls-1" x1="37.5" y1="71.64" x2="69.77" y2="101.92"/><path class="cls-1" d="M120.23,88.79a17.33,17.33,0,0,0-2.33,23.67,15.7,15.7,0,0,0,22.7,2.42c6.91-5.87,12.33-32.16,12.33-32.16S127.14,82.93,120.23,88.79Z" transform="translate(-29.31 -27.81)"/><line class="cls-1" x1="102.04" y1="71.64" x2="69.77" y2="101.92"/></svg>