<svg id="Layer_1" data-name="Layer 1" xmlns="http://www.w3.org/2000/svg" viewBox="0 0 137.84 144.42"><defs><style>.cls-1,.cls-2{fill:none;stroke-linejoin:round;stroke-width:4px;}.cls-1{stroke:#f3a31e;stroke-linecap:round;}.cls-2{stroke:#fff;}</style></defs><title>loans_hover</title><line class="cls-1" x1="70.24" y1="33.5" x2="78.44" y2="13.72"/><line class="cls-1" x1="62.45" y1="33.27" x2="60.86" y2="22.48"/><path class="cls-1" d="M111.17,60.27l.33-.21c2.4-4.56,10-13,12.18-19.72,7.18-22.06-31.86-1.94-54.29-6.53-2.18-.44,10.25,14,15.55,26.46" transform="translate(-31.08 -27.79)"/><path class="cls-1" d="M84.49,62.44h28.19c9.4,0,22.77,10.89,33.78,23.86C162.37,105,181,150.92,150.91,166c-10.59,5.31-27.11,4.08-50.88,4.08-25.32,0-41.85,1.06-52-4.65C20.53,150,36.49,103.8,52.16,85,62.45,72.7,75.1,62.44,84.49,62.44Z" transform="translate(-31.08 -27.79)"/><polyline class="cls-2" points="65.75 91.24 50.42 91.21 76.85 122.93"/><line class="cls-2" x1="47.78" y1="75.35" x2="90.06" y2="75.35"/><line class="cls-2" x1="47.78" y1="59.5" x2="90.06" y2="59.5"/><path class="cls-2" d="M96.83,87.29a15.87,15.87,0,1,1,0,31.73" transform="translate(-31.08 -27.79)"/></svg>