<svg id="Layer_9" data-name="Layer 9" xmlns="http://www.w3.org/2000/svg" viewBox="0 0 250.02 171.77"><defs><style>.cls-1{fill:#f7a30a;}.cls-2{font-size:28.09px;fill:#fff;font-family:MyriadPro-Bold, Myriad Pro;font-weight:700;letter-spacing:0.19em;}.cls-3{letter-spacing:0.2em;}</style></defs><title>request a pin</title><path class="cls-1" d="M225.45,210.89H24.55C11,210.89,0,200.37,0,187.45V62.55C0,49.63,11,39.11,24.55,39.11h200.9C239,39.11,250,49.63,250,62.55v124.9C250,200.37,239,210.89,225.45,210.89ZM24.55,47.54c-8.9,0-16.13,6.73-16.13,15v124.9c0,8.28,7.24,15,16.13,15h200.9c8.9,0,16.13-6.73,16.13-15V62.55c0-8.28-7.24-15-16.13-15Z" transform="translate(0.01 -39.11)"/><path class="cls-1" d="M216.85,82.45H33.15a4.21,4.21,0,0,1,0-8.43H216.85a4.21,4.21,0,0,1,0,8.43Z" transform="translate(0.01 -39.11)"/><text class="cls-2" transform="translate(79.8 101.09)">XXX<tspan class="cls-3" x="67.59" y="0">X</tspan></text></svg>