<svg xmlns="http://www.w3.org/2000/svg" viewBox="0 0 153.79 159.62"><defs><style>.cls-1{fill:#f2a31e;}.cls-2{fill:#842726;}</style></defs><title>customert_innovation</title><g id="customer_centric_innovation" data-name="customer centric innovation"><path class="cls-1" d="M91.12,100.52A11.54,11.54,0,0,0,94,108.19a8,8,0,0,0,11.44.34,11.16,11.16,0,0,0,3.49-8C108.88,86.55,91.12,86.66,91.12,100.52Zm11.69,5.3a4.25,4.25,0,0,1-6.06-.1,7.82,7.82,0,0,1-1.89-5.2c0-3.16,1.92-6.76,5.14-6.76s5.14,3.6,5.14,6.76A7.38,7.38,0,0,1,102.81,105.82Z" transform="translate(-23.1 -20.19)"/><path class="cls-2" d="M97.74,53.83c-21.55,1.1-39,18.5-39.72,39.6a40.32,40.32,0,0,0,11.25,29.39C78,132,73.63,138.29,79,147.36V164.5a15.33,15.33,0,0,0,15.31,15.31h11.08a15.33,15.33,0,0,0,15.31-15.31V148c6.69-10.64.36-16.37,7.49-22.67A40.73,40.73,0,0,0,142,94.83C142,71.66,122.25,52.57,97.74,53.83ZM116.92,164.5a11.58,11.58,0,0,1-11.57,11.57H94.27A11.58,11.58,0,0,1,82.7,164.5V148.71h34.22ZM86.47,120l-9-9.06a8.62,8.62,0,0,1-2.06-3.46l-3.82-12c-.6-1.9,1.54-3.42,2.28-1.1l3.19,10a9.15,9.15,0,0,0,5.4,5.93l11.22,4.25a16.86,16.86,0,0,0,12.57,0l11.21-4.25a9.16,9.16,0,0,0,5.4-5.92l3.19-10c.72-2.26,2.9-.84,2.28,1.11l-3.82,12a8.59,8.59,0,0,1-2.06,3.47l-9,9.07a10.45,10.45,0,0,0-2.81,5.57,1,1,0,0,0,0,.24L109.8,145H90.2l-.89-19.15a1,1,0,0,0,0-.24A10.51,10.51,0,0,0,86.47,120Zm39.2,2.5c-8.42,7.43-2.49,13.19-7.58,22.47h-4.55l.88-18.85a6.81,6.81,0,0,1,1.77-3.49l9-9a12.57,12.57,0,0,0,3-5l3.83-12c2.13-6.7-7.2-10.35-9.41-3.38l-3.2,10a5.52,5.52,0,0,1-3.16,3.56L105,111.05a13.41,13.41,0,0,1-9.93,0L83.83,106.8a5.52,5.52,0,0,1-3.16-3.56l-3.2-10c-2.21-7-11.54-3.34-9.41,3.38l3.83,12a12.46,12.46,0,0,0,3,4.95l9,9.06a6.75,6.75,0,0,1,1.78,3.49L86.46,145H81.91c-4.2-7.66-.61-15-9.93-24.73A36.59,36.59,0,0,1,61.76,93.56c.65-19.18,16.54-35,36.17-36,21.79-1.12,40.33,15.7,40.33,37.27A37,37,0,0,1,125.67,122.5Z" transform="translate(-23.1 -20.19)"/><path class="cls-2" d="M98.18,22.06V33.69a1.87,1.87,0,0,0,3.74,0V22.06a1.87,1.87,0,0,0-3.74,0Z" transform="translate(-23.1 -20.19)"/><path class="cls-2" d="M61.58,30.24a1.87,1.87,0,0,0-.66,2.56l6,10.11a1.87,1.87,0,0,0,1.61.92,1.84,1.84,0,0,0,.95-.26A1.87,1.87,0,0,0,70.12,41l-6-10.11A1.87,1.87,0,0,0,61.58,30.24Z" transform="translate(-23.1 -20.19)"/><path class="cls-2" d="M46.35,62.88,36,57a1.87,1.87,0,1,0-1.84,3.26l10.39,5.85a1.79,1.79,0,0,0,.91.25,1.87,1.87,0,0,0,.92-3.5Z" transform="translate(-23.1 -20.19)"/><path class="cls-2" d="M25,97.15H37a1.87,1.87,0,0,0,0-3.74H25a1.87,1.87,0,1,0,0,3.74Z" transform="translate(-23.1 -20.19)"/><path class="cls-2" d="M33.37,132.83a1.87,1.87,0,0,0,1.63,1,1.82,1.82,0,0,0,.92-.25l10.18-5.73a1.87,1.87,0,1,0-1.84-3.26l-10.18,5.74A1.86,1.86,0,0,0,33.37,132.83Z" transform="translate(-23.1 -20.19)"/><path class="cls-2" d="M153.69,127.81,164,133.63a1.81,1.81,0,0,0,.92.24,1.87,1.87,0,0,0,.92-3.5l-10.34-5.82a1.87,1.87,0,0,0-1.84,3.26Z" transform="translate(-23.1 -20.19)"/><path class="cls-2" d="M175,93.51l-11.91-.1h0a1.87,1.87,0,0,0-1.87,1.85,1.89,1.89,0,0,0,1.86,1.89l11.91.1h0a1.87,1.87,0,0,0,0-3.74Z" transform="translate(-23.1 -20.19)"/><path class="cls-2" d="M164.08,57.11,153.69,63a1.87,1.87,0,0,0-.71,2.54,1.89,1.89,0,0,0,1.63,1,1.79,1.79,0,0,0,.92-.25l10.39-5.85a1.87,1.87,0,1,0-1.84-3.26Z" transform="translate(-23.1 -20.19)"/><path class="cls-2" d="M136,31,130,41a1.88,1.88,0,0,0,.66,2.57,1.91,1.91,0,0,0,1,.26,1.87,1.87,0,0,0,1.61-.92l5.95-10.07A1.87,1.87,0,1,0,136,31Z" transform="translate(-23.1 -20.19)"/></g></svg>