<svg id="pay_taxes_copy" data-name="pay taxes copy" xmlns="http://www.w3.org/2000/svg" viewBox="0 0 138.39 145.57"><defs><style>.cls-1{fill:#f29e3a;stroke:#f29e3a;}.cls-1,.cls-2,.cls-5{stroke-miterlimit:10;stroke-width:2px;}.cls-2{font-size:43.96px;font-family:MyriadPro-Regular, Myriad Pro;}.cls-2,.cls-5{fill:#fff;stroke:#fff;}.cls-3{letter-spacing:-0.07em;}.cls-4{letter-spacing:-0.01em;}</style></defs><title>personal</title><path class="cls-1" d="M166.24,128.06H152.93a2,2,0,0,0,0,3.92h11.35v26.43c0,5.21-3.92,9.46-8.73,9.46s-8.72-4.25-8.72-9.46V30.17a2,2,0,0,0-2-2H33.76a2,2,0,0,0-1.95,2V151.23c0,11.33,8.68,20.55,19.35,20.55H140.6a2,2,0,0,0,0-3.91H51.16c-8.51,0-15.44-7.47-15.44-16.64V32.13H142.91V158.41c0,7.37,5.67,13.37,12.64,13.37s12.64-6,12.64-13.37V130A2,2,0,0,0,166.24,128.06Z" transform="translate(-30.81 -27.22)"/><text class="cls-2" transform="translate(24.06 53.17)"><tspan class="cls-3">T</tspan><tspan class="cls-4" x="18.55" y="0">A</tspan><tspan x="44.84" y="0">X</tspan></text><path class="cls-5" d="M115.8,113.22H56.92a1.78,1.78,0,1,0,0,3.54H115.8a1.78,1.78,0,1,0,0-3.54Z" transform="translate(-30.81 -27.22)"/><path class="cls-5" d="M115.8,127.58H56.92a1.78,1.78,0,1,0,0,3.54H115.8a1.78,1.78,0,1,0,0-3.54Z" transform="translate(-30.81 -27.22)"/><path class="cls-5" d="M115.8,141.66H56.92a1.78,1.78,0,1,0,0,3.54H115.8a1.78,1.78,0,1,0,0-3.54Z" transform="translate(-30.81 -27.22)"/></svg>