<svg xmlns="http://www.w3.org/2000/svg" viewBox="0 0 159.79 147.45"><defs><style>.cls-1,.cls-2{fill:none;stroke-miterlimit:10;stroke-width:4px;}.cls-1{stroke:#f3a220;}.cls-2{stroke:#832626;}</style></defs><title>sustainable_value</title><g id="Layer_10_copy" data-name="Layer 10 copy"><path class="cls-1" d="M55.55,123.56,77,129.19s15.3,5.72,19.15,11.92" transform="translate(-20.11 -26.28)"/><path class="cls-2" d="M50.94,65.27s7.88,6.48,11.26,22.81a45.73,45.73,0,0,1,0,6.48l-3.66,16.89-7.32,25.34-3.94,13.8L34.89,131.16s-2.53-2.82.56-10.7L45.87,84.14Z" transform="translate(-20.11 -26.28)"/><path class="cls-2" d="M50.66,64.64s-17,5.7-22.95,18.65c0,0-8.59,15.35-4.5,27,0,0,8,15.83,10.95,19.77" transform="translate(-20.11 -26.28)"/><line class="cls-2" x1="19.01" y1="82.45" x2="38.44" y2="85.17"/><line class="cls-2" x1="25.01" y1="59.8" x2="42.44" y2="62.52"/><line class="cls-2" x1="12.46" y1="50.12" x2="22.88" y2="67.01"/><line class="cls-2" x1="3.31" y1="68.63" x2="16.33" y2="89.96"/><path class="cls-1" d="M47.52,150.89s4.08,9.55,7,11.9c0,0,7.6,7.69,21,7.13,0,0,13.14-.56,19.33-3.57" transform="translate(-20.11 -26.28)"/><path class="cls-1" d="M99.44,51.11,82.92,66s-13.2,9.63-20.49,9.43" transform="translate(-20.11 -26.28)"/><path class="cls-2" d="M150.65,79.33s-9.75,3-25.25-3.14a45.85,45.85,0,0,1-5.4-3.57L107.91,60.27,90.78,40.21,81.43,29.33l23,.34s3.74-.56,8.62,6.36l24.59,28.69Z" transform="translate(-20.11 -26.28)"/><path class="cls-2" d="M151.33,79.45s4.61-17.36-3-29.43c0,0-8.08-15.61-20.09-18.64,0,0-17.61-2-22.53-1.73" transform="translate(-20.11 -26.28)"/><line class="cls-2" x1="100.77" y1="19.27" x2="87.8" y2="33.99"/><line class="cls-2" x1="116.38" y1="36.75" x2="104.51" y2="49.8"/><line class="cls-2" x1="131.36" y1="31.6" x2="111.53" y2="31"/><line class="cls-2" x1="120.94" y1="13.77" x2="95.97" y2="12.9"/><path class="cls-1" d="M81,29.35s-10.22-1.84-13.78-.7c0,0-10.61,2.11-17.52,13.62,0,0-6.76,11.28-7.66,18.11" transform="translate(-20.11 -26.28)"/><path class="cls-1" d="M143.92,126.35l-6.83-21.14s-3.41-16-.26-22.55" transform="translate(-20.11 -26.28)"/><path class="cls-2" d="M97.28,161.61s1.21-10.13,13.16-21.76a45.54,45.54,0,0,1,5.46-3.49l16.2-6,25.3-7.47,13.75-4.1-9.71,20.89s-1,3.66-9.32,5.29l-36.21,10.77Z" transform="translate(-20.11 -26.28)"/><path class="cls-2" d="M96.9,162.19s14,11.29,28.07,9.3c0,0,17.55-1,25.2-10.75,0,0,9-15.26,10.77-19.87" transform="translate(-20.11 -26.28)"/><line class="cls-2" x1="120.16" y1="121.91" x2="112" y2="104.08"/><line class="cls-2" x1="97.84" y1="129.05" x2="90.75" y2="112.9"/><line class="cls-2" x1="96.44" y1="144.83" x2="105.07" y2="126.96"/><line class="cls-2" x1="116.96" y1="142.58" x2="127.93" y2="120.13"/><path class="cls-1" d="M171.28,118.41s5.85-8.58,6.26-12.29c0,0,2.4-10.55-5.3-21.56,0,0-7.55-10.77-13.42-14.37" transform="translate(-20.11 -26.28)"/></g></svg>