<svg id="Layer_1" data-name="Layer 1" xmlns="http://www.w3.org/2000/svg" viewBox="0 0 135.82 143.43"><defs><style>.cls-1{fill:#fff;stroke:#fff;stroke-miterlimit:10;stroke-width:2px;}.cls-2{fill:none;stroke:#f6a31d;stroke-linejoin:round;stroke-width:4px;}</style></defs><title>money transfer</title><g id="money_transfer" data-name="money transfer"><path class="cls-1" d="M86,34.92a66.91,66.91,0,0,0-53,65.46c0,33,23.35,60.54,56.61,65.94l-6.76,1.18a1.66,1.66,0,0,0,.33,3.28c.27,0,16.8-3.47,17.06-3.52l.08,0a1.65,1.65,0,0,0,.24-3.12h0l-16.15-7a1.66,1.66,0,0,0-1.31,3l7.1,3.07A63.61,63.61,0,0,1,86.71,38.16,1.66,1.66,0,0,0,86,34.92Z" transform="translate(-32.02 -28.34)"/><path class="cls-1" d="M116,29.4,99.52,33.52a1.65,1.65,0,0,0-.34,3.08l.07,0,15.41,6.84a1.66,1.66,0,0,0,1.34-3l-6.7-3a63.6,63.6,0,0,1,4.17,125.05,1.66,1.66,0,0,0,.35,3.28c1.08,0,22.33-4,38-23.16A66.92,66.92,0,0,0,110.21,34.26l6.57-1.64A1.66,1.66,0,0,0,116,29.4Z" transform="translate(-32.02 -28.34)"/><polyline class="cls-2" points="64.73 71.74 49.41 71.72 75.84 103.43"/><line class="cls-2" x1="46.77" y1="55.86" x2="89.05" y2="55.86"/><line class="cls-2" x1="46.77" y1="40" x2="89.05" y2="40"/><path class="cls-2" d="M96.75,68.34a15.87,15.87,0,1,1,0,31.74" transform="translate(-32.02 -28.34)"/></g></svg>