<svg id="Layer_1" data-name="Layer 1" xmlns="http://www.w3.org/2000/svg" viewBox="0 0 151.99 134.69"><defs><style>.cls-1{fill:#f29e39;}.cls-2{fill:#f29d39;}</style></defs><title>notification</title><g id="Layer_31" data-name="Layer 31"><path class="cls-1" d="M115.82,62c-.23-2.75-.49-5.84-.83-9.36-2-20.7-17.77-29.09-25.75-32a14.7,14.7,0,1,0-26.91,0c-8,2.94-23.77,11.33-25.76,32-.33,3.52-.6,6.61-.83,9.35-1.43,16.78-1.69,19.81-10.8,30-10.17,11.4-6.55,21.57-4.52,25.4a7.18,7.18,0,0,0,6.36,3.86H56.69a20.25,20.25,0,0,0,38.18,0h29.91a7.19,7.19,0,0,0,6.37-3.86c2-3.84,5.64-14-4.52-25.39C117.52,81.78,117.26,78.76,115.82,62Zm-40-54.85a7.57,7.57,0,1,1-7.57,7.57h0a7.56,7.56,0,0,1,7.53-7.57Zm0,120.48a13.19,13.19,0,0,1-11.27-6.37H87a13.14,13.14,0,0,1-11.23,6.37Zm-49.1-13.56c-1.65-3.13-3.39-9.54,3.54-17.31C41,84.74,41.35,80.06,42.84,62.58c.23-2.73.5-5.79.83-9.28,1.88-19.55,18.61-25.5,23.39-26.81a14.57,14.57,0,0,0,17.43,0c4.7,1.32,21.54,7.38,23.4,26.8.34,3.49.6,6.56.83,9.28,1.5,17.48,1.9,22.17,12.59,34.16,6.93,7.77,5.19,14.13,3.47,17.31Z" transform="translate(-0.01 -0.04)"/><path class="cls-2" d="M22.36,88.08a3.57,3.57,0,0,0,.47-5A12,12,0,0,1,24.44,66.2a3.56,3.56,0,0,0-4.54-5.49h0A19.1,19.1,0,0,0,17.32,87.6l0,0A3.57,3.57,0,0,0,22.36,88.08Z" transform="translate(-0.01 -0.04)"/><path class="cls-2" d="M128,62a3.56,3.56,0,0,0,0,5,12,12,0,0,1,.13,17l0,0a3.57,3.57,0,0,0,2.54,6.07A3.53,3.53,0,0,0,133.12,89,19.14,19.14,0,0,0,133,62,3.56,3.56,0,0,0,128,62Z" transform="translate(-0.01 -0.04)"/><path class="cls-2" d="M14,60.52a3.57,3.57,0,0,0-4-5.87C-1.2,62.35-3.29,78.74,5.29,91.18a3.56,3.56,0,0,0,6.14-3.6,3.51,3.51,0,0,0-.27-.4C4.8,77.92,6.07,66,14,60.52Z" transform="translate(-0.01 -0.04)"/><path class="cls-2" d="M151.83,71.37A23.2,23.2,0,0,0,142,54.65a3.57,3.57,0,1,0-4.6,5.46,4,4,0,0,0,.6.41,16.17,16.17,0,0,1,6.75,11.68,21.88,21.88,0,0,1-3.9,14.94,3.56,3.56,0,1,0,5.6,4.4,3.51,3.51,0,0,0,.27-.4A29,29,0,0,0,151.83,71.37Z" transform="translate(-0.01 -0.04)"/><path class="cls-1" d="M92.59,36.78l-2.83,6.59-.15-.07s4.9,2.86,6,16.52a3.57,3.57,0,0,0,7.11-.56C101.26,41,93.47,37.16,92.59,36.78Z" transform="translate(-0.01 -0.04)"/></g></svg>